<svg xmlns="http://www.w3.org/2000/svg" version="1.1" viewBox="260.096 137.216 499.712 509.952" style="max-height: 500px" width="499.712" height="509.952">
<path transform="translate(509.625,144.6875)" fill="#2F434B" d="M0 0 C0.88 0 1.75 0 2.65 0.01 C16.41 0.06 29.85 0.59 43.38 3.31 C44.36 3.51 45.35 3.71 46.37 3.91 C92.85 13.59 133.03 34.65 167.38 67.31 C168.22 68.12 168.22 68.12 169.09 68.94 C177.69 77.16 185.33 85.73 192.38 95.31 C192.86 95.96 193.34 96.61 193.83 97.28 C224.4 138.58 240.85 187.23 240.75 238.62 C240.75 239.59 240.75 240.55 240.75 241.55 C240.71 257.45 239.71 272.71 236.38 288.31 C236.19 289.21 236 290.11 235.81 291.04 C227.15 331.56 207.68 369.13 179.38 399.31 C178.2 400.66 177.03 402.02 175.88 403.38 C169.23 410.99 162.03 417.81 154.13 424.11 C152.36 425.53 150.6 426.98 148.87 428.45 C127.73 446.42 102.6 459.52 76.38 468.31 C75.55 468.59 74.72 468.87 73.87 469.16 C61.24 473.34 48.51 476.26 35.38 478.31 C34.64 478.43 33.9 478.55 33.14 478.67 C6.11 482.8 -22.47 481.18 -49.12 475.62 C-56.35 473.96 -56.35 473.96 -63.62 474.31 C-65.96 476.06 -68 477.99 -70.09 480.02 C-81.11 489.98 -97.05 497.67 -112 497.54 C-115.26 497.26 -117.13 496.42 -119.62 494.31 C-120.2 493.9 -120.78 493.49 -121.38 493.06 C-124.79 488.28 -123.67 480.82 -123.52 475.16 C-123.5 472.48 -123.48 469.81 -123.47 467.13 C-123.45 465.3 -123.41 463.46 -123.35 461.62 C-122.66 450.75 -122.66 450.75 -127.17 441.43 C-130.24 439.39 -133.26 437.82 -136.62 436.31 C-138.51 435.08 -138.51 435.08 -139.93 433.98 C-141.2 433.03 -141.2 433.03 -142.5 432.06 C-159.2 419.33 -174.8 404.99 -187.62 388.31 C-188.4 387.36 -189.17 386.4 -189.96 385.42 C-212.81 356.72 -227.06 324.1 -234.62 288.31 C-234.84 287.36 -235.05 286.41 -235.26 285.43 C-241.23 257.48 -241.38 225.3 -235.62 197.31 C-235.38 196.04 -235.38 196.04 -235.14 194.74 C-228.99 162.5 -216.77 131.08 -197.62 104.31 C-196.87 103.24 -196.11 102.18 -195.33 101.07 C-193.15 98.1 -190.91 95.2 -188.62 92.31 C-187.89 91.37 -187.15 90.43 -186.39 89.46 C-172.59 72.48 -156.62 56.79 -138.62 44.31 C-137.99 43.87 -137.36 43.42 -136.7 42.96 C-127.38 36.42 -117.69 30.63 -107.62 25.31 C-107.01 24.98 -106.39 24.65 -105.75 24.31 C-73.47 7.24 -36.25 -0.16 0 0 Z M-138.62 79.31 C-139.77 80.27 -140.92 81.22 -142.07 82.18 C-182.19 115.56 -204.69 167.39 -210.36 218.52 C-210.66 222.8 -210.69 227.03 -210.62 231.31 C-210.05 231.33 -209.47 231.34 -208.87 231.36 C-206.22 231.43 -203.58 231.53 -200.94 231.62 C-199.57 231.66 -199.57 231.66 -198.17 231.69 C-193.25 231.89 -189.58 232.05 -185.62 235.31 C-184.08 238.4 -184.33 240.91 -184.62 244.31 C-186.66 246.95 -187.94 248.14 -191.19 248.95 C-192.13 249.01 -193.08 249.08 -194.05 249.14 C-195.07 249.22 -196.1 249.3 -197.15 249.38 C-198.22 249.44 -199.28 249.5 -200.38 249.56 C-201.45 249.64 -202.53 249.72 -203.64 249.8 C-206.3 249.99 -208.96 250.16 -211.62 250.31 C-208 287.66 -199.51 322.62 -178.62 354.31 C-178.25 354.88 -177.87 355.45 -177.49 356.04 C-164.58 375.49 -148.98 392.87 -130.62 407.31 C-129.29 408.43 -129.29 408.43 -127.93 409.57 C-125.84 411.51 -125.84 411.51 -123.62 411.31 C-123.62 409.51 -123.62 409.51 -123.61 407.66 C-123.55 396.25 -123.48 384.83 -123.39 373.42 C-123.34 367.55 -123.31 361.68 -123.28 355.82 C-123.25 350.14 -123.21 344.47 -123.16 338.8 C-123.15 336.64 -123.13 334.49 -123.13 332.34 C-123.08 316.61 -122.24 301.67 -116.5 286.81 C-116.2 286.02 -115.9 285.24 -115.59 284.42 C-110.33 271.05 -102.88 259.26 -93.62 248.31 C-93.19 247.8 -92.76 247.29 -92.32 246.77 C-78.4 230.49 -61.46 218.66 -42.61 208.71 C-41.89 208.32 -41.17 207.94 -40.43 207.54 C-39.79 207.2 -39.15 206.87 -38.49 206.53 C-36.22 205.05 -34.48 203.27 -32.62 201.31 C-37.56 201.17 -42.5 201.02 -47.44 200.89 C-49.12 200.84 -50.79 200.79 -52.46 200.74 C-64.18 200.39 -75.89 200.23 -87.62 200.31 C-88.44 200.32 -89.25 200.32 -90.09 200.33 C-95.29 200.36 -100.48 200.43 -105.68 200.52 C-107.44 200.55 -109.2 200.57 -110.97 200.58 C-125.08 200.7 -137.02 202.29 -150.06 208.06 C-154.95 210.2 -158.32 211.08 -163.62 210.31 C-165.81 208.9 -166.4 208.03 -167.18 205.58 C-171.88 181.8 -161.46 150.38 -148.4 130.83 C-131 106.2 -109.53 87.62 -79.45 81.74 C-74.49 80.99 -69.55 81.02 -64.54 81.02 C-63.38 81.02 -62.21 81.01 -61.01 81 C-57.18 80.98 -53.35 80.98 -49.52 80.98 C-47.52 80.97 -45.52 80.97 -43.51 80.96 C-37.22 80.95 -30.92 80.94 -24.63 80.94 C-18.17 80.94 -11.72 80.92 -5.27 80.89 C0.3 80.86 5.88 80.85 11.45 80.85 C14.77 80.86 18.08 80.85 21.4 80.83 C38.21 80.74 54.31 80.81 69.56 88.88 C70.21 89.21 70.87 89.55 71.54 89.89 C90.73 100.26 103.48 117.4 109.88 137.94 C110.11 138.8 110.35 139.67 110.59 140.56 C111.97 145.26 111.97 145.26 115.28 148.69 C117.38 149.75 117.38 149.75 119.47 150.51 C122.76 151.9 124.69 154.28 126.38 157.31 C127.59 160.6 128.55 163.91 129.38 167.31 C131.02 167.31 132.67 167.31 134.38 167.31 C134.49 163.42 134.56 159.52 134.62 155.62 C134.68 153.97 134.68 153.97 134.73 152.28 C134.94 145.95 134.94 145.95 132.39 140.36 C131.73 139.68 131.06 139.01 130.38 138.31 C129.6 134.89 129.71 131.75 130.38 128.31 C132.9 124.97 134.41 123.63 138.38 122.31 C142.48 121.82 146.6 121.36 150.33 123.36 C152.47 125.12 154.13 126.82 155.38 129.31 C155.73 134.66 155.82 137.94 152.38 142.31 C151.71 142.64 151.06 142.97 150.38 143.31 C149.71 155.52 149.06 167.73 148.38 180.31 C143.3 182 140.82 182.45 135.75 182.44 C131.3 182.53 131.3 182.53 127.89 184.94 C126.97 187 126.97 187 126.26 189.18 C124.18 194.21 119.08 197.01 114.38 199.31 C114.22 203.44 114.08 207.56 113.94 211.69 C113.91 212.35 113.89 213.01 113.87 213.69 C113.53 223.36 113.33 233.02 113.23 242.7 C113.18 245.98 113.14 249.27 113.1 252.55 C113.08 254.69 113.06 256.83 113.05 258.97 C112.82 304.51 97.67 342.22 66.06 374.94 C62.09 378.82 57.97 382.42 53.62 385.88 C53.05 386.34 52.47 386.81 51.88 387.29 C48.77 389.72 45.75 391.69 42.18 393.38 C37.99 395.46 34.14 397.43 31.38 401.31 C28.9 408.98 29.93 417.4 30.38 425.31 C30.45 427.76 30.52 430.21 30.59 432.66 C30.77 438.88 31.04 445.1 31.38 451.31 C73.82 443.79 109.42 427.03 142.38 399.31 C143.03 398.78 143.68 398.25 144.36 397.7 C148.09 394.63 151.26 391.31 154.38 387.61 C155.82 385.95 157.32 384.33 158.84 382.73 C191.31 348.67 213.38 297.66 213.38 250.31 C212.69 250.27 212.01 250.22 211.31 250.18 C208.23 249.97 205.15 249.73 202.06 249.5 C200.45 249.39 200.45 249.39 198.81 249.29 C197.79 249.21 196.76 249.13 195.7 249.04 C194.75 248.97 193.8 248.91 192.83 248.84 C190.04 248.24 189.07 247.57 187.38 245.31 C186.98 243.16 186.98 243.16 187 240.81 C186.99 240.04 186.98 239.27 186.98 238.47 C187.47 235.8 188.25 234.95 190.38 233.31 C193.1 232.4 195 232.13 197.82 232 C198.67 231.95 199.52 231.91 200.39 231.87 C201.27 231.83 202.15 231.79 203.06 231.75 C204.4 231.69 204.4 231.69 205.77 231.62 C207.97 231.51 210.17 231.41 212.38 231.31 C215.36 185 192.08 135.62 162.38 101.31 C161.66 100.48 160.94 99.66 160.2 98.8 C157.96 96.27 155.68 93.78 153.38 91.31 C152.58 90.45 151.78 89.59 150.96 88.7 C138.28 75.46 123.22 65.38 107.38 56.31 C106.69 55.92 106.01 55.52 105.3 55.11 C76.3 38.47 43.69 29.44 10.38 28.31 C10.34 29.02 10.31 29.72 10.27 30.45 C10.1 33.66 9.89 36.86 9.69 40.06 C9.63 41.17 9.58 42.28 9.53 43.43 C8.96 51.65 8.96 51.65 5.98 55.04 C2.72 56.63 0.96 56.98 -2.62 56.31 C-5.74 54.19 -7.39 52.51 -8.12 48.75 C-8.34 45.66 -8.42 42.6 -8.44 39.5 C-8.46 38.43 -8.49 37.35 -8.51 36.24 C-8.57 33.6 -8.61 30.96 -8.62 28.31 C-55.85 27.45 -103.4 48.63 -138.62 79.31 Z M3.9 413.77 C3 414.08 2.1 414.39 1.17 414.7 C-0.71 415.35 -2.59 416 -4.47 416.65 C-8.82 418.13 -13.03 419.44 -17.56 420.27 C-21.47 421.09 -23.21 422.21 -25.56 425.56 C-26.2 426.45 -26.84 427.33 -27.5 428.24 C-28.2 429.25 -28.9 430.27 -29.62 431.31 C-30.53 432.54 -31.44 433.76 -32.35 434.98 C-33.27 436.24 -34.2 437.49 -35.12 438.75 C-35.57 439.35 -36.02 439.96 -36.48 440.58 C-39.05 444.08 -39.05 444.08 -39.62 448.31 C-30.4 450.56 -21.27 451.75 -11.81 452.5 C-10.76 452.58 -9.72 452.67 -8.64 452.75 C-2.29 453.22 4.01 453.42 10.38 453.31 C11.65 450.77 11.5 448.98 11.51 446.14 C11.51 445.09 11.51 444.04 11.51 442.95 C11.51 441.84 11.5 440.72 11.5 439.56 C11.5 438.43 11.5 437.3 11.49 436.14 C11.45 428.16 11.17 420.26 10.38 412.31 C7.94 412.31 6.21 412.98 3.9 413.77 Z"/>
<path transform="translate(515,244)" fill="#23789A" d="M0 0 C4.89 -0.08 9.78 -0.13 14.67 -0.16 C16.32 -0.18 17.98 -0.2 19.64 -0.23 C36.79 -0.49 51.17 1.77 65.31 12.25 C79.8 27.08 86.15 45.67 86.15 66.09 C86.15 67.2 86.15 68.31 86.16 69.45 C86.16 73.11 86.17 76.77 86.17 80.43 C86.17 82.99 86.17 85.55 86.18 88.1 C86.18 93.46 86.19 98.83 86.19 104.19 C86.18 110.35 86.2 116.51 86.21 122.67 C86.23 128.64 86.23 134.6 86.23 140.56 C86.23 143.08 86.23 145.6 86.24 148.11 C86.29 164.55 86.27 180.33 81.19 196.12 C80.92 196.97 80.66 197.82 80.38 198.7 C75.01 215.64 68.12 231.04 57 245 C56.59 245.51 56.19 246.03 55.77 246.55 C36.36 270.88 9.02 289.62 -21.22 297.47 C-31.84 300.26 -38.94 302.3 -45 312 C-45.78 313.09 -46.58 314.18 -47.38 315.26 C-50.42 319.39 -53.34 323.6 -56.25 327.82 C-69.45 346.88 -86.77 368.68 -110 375 C-110.07 354.68 -110.12 334.35 -110.16 314.03 C-110.17 304.59 -110.19 295.15 -110.23 285.71 C-110.26 277.48 -110.28 269.25 -110.28 261.01 C-110.29 256.66 -110.3 252.31 -110.32 247.95 C-110.34 243.84 -110.34 239.73 -110.34 235.62 C-110.34 234.12 -110.35 232.63 -110.36 231.13 C-110.59 199.71 -98.29 173.37 -76.75 150.75 C-68.19 142.18 -58.19 135.96 -47.62 130.14 C-29.69 120.27 -13.45 108.86 -6 89 C-3.14 77.93 -2.43 66.84 -2.05 55.47 C-1.99 53.85 -1.93 52.24 -1.86 50.63 C-1.7 46.44 -1.55 42.25 -1.4 38.06 C-1.25 33.76 -1.08 29.47 -0.92 25.17 C-0.6 16.78 -0.3 8.39 0 0 Z"/>
<path transform="translate(515,244)" fill="#FDFDFD" d="M0 0 C4.89 -0.08 9.78 -0.13 14.67 -0.16 C16.32 -0.18 17.98 -0.2 19.64 -0.23 C36.79 -0.49 51.17 1.77 65.31 12.25 C79.87 27.15 86.3 46.08 86.31 66.61 C86.06 82.66 78.72 95.91 67.8 107.39 C52.06 122.04 34.18 127.42 12.98 127.48 C11.58 127.49 10.18 127.51 8.78 127.52 C5.13 127.57 1.49 127.59 -2.15 127.61 C-8 127.65 -13.85 127.71 -19.7 127.77 C-21.73 127.79 -23.76 127.8 -25.78 127.81 C-27.02 127.82 -28.26 127.83 -29.54 127.84 C-31.16 127.85 -31.16 127.85 -32.82 127.86 C-36.26 128.01 -39.59 128.46 -43 129 C-39.92 125.69 -36.63 123.3 -32.88 120.81 C-19.13 111.45 -7.95 100.1 -4.43 83.26 C-2.97 74.11 -2.48 65.01 -2.15 55.76 C-2.08 54.14 -2.02 52.53 -1.96 50.91 C-1.79 46.69 -1.63 42.48 -1.47 38.27 C-1.31 33.95 -1.14 29.63 -0.97 25.31 C-0.64 16.88 -0.32 8.44 0 0 Z"/>
<path transform="translate(450.24609375,243.609375)" fill="#F99A31" d="M0 0 C1.39 0.01 2.78 0.01 4.17 0.02 C7.78 0.03 11.38 0.07 14.99 0.12 C18.69 0.16 22.39 0.18 26.09 0.2 C33.31 0.24 40.53 0.31 47.75 0.39 C47.73 1 47.7 1.6 47.68 2.23 C47.19 13.53 46.75 24.84 46.45 36.16 C46.33 40.97 46.19 45.79 46.04 50.61 C45.97 53.09 45.91 55.56 45.86 58.04 C45.77 61.68 45.66 65.31 45.55 68.95 C45.53 70.05 45.51 71.16 45.49 72.31 C45.43 73.84 45.43 73.84 45.38 75.4 C45.35 76.29 45.33 77.19 45.3 78.11 C44.57 81.17 43.4 81.77 40.75 83.39 C38.56 83.76 38.56 83.76 36.14 83.76 C35.21 83.76 34.29 83.77 33.34 83.77 C32.33 83.76 31.33 83.75 30.29 83.74 C29.22 83.75 28.16 83.75 27.06 83.75 C24.74 83.75 22.43 83.75 20.11 83.74 C16.43 83.73 12.75 83.73 9.07 83.75 C-1.4 83.78 -11.87 83.77 -22.33 83.75 C-28.74 83.74 -35.14 83.75 -41.54 83.78 C-43.97 83.79 -46.4 83.78 -48.83 83.77 C-62.94 83.69 -74.94 84.63 -88.25 89.39 C-88.91 89.39 -89.57 89.39 -90.25 89.39 C-89.02 63.27 -76.07 39.31 -57.53 21.36 C-40.76 6.89 -22.08 -0.35 0 0 Z"/>
<path transform="translate(494.0625,401.734375)" fill="#FCFDFD" d="M0 0 C1.19 -0 1.19 -0 2.41 -0.01 C3.25 -0 4.08 0.01 4.94 0.02 C5.77 0.01 6.6 0 7.46 -0.01 C8.26 -0.01 9.05 -0 9.88 0 C10.61 0 11.34 0 12.09 0.01 C13.94 0.27 13.94 0.27 15.94 2.27 C16.17 3.7 16.35 5.14 16.5 6.58 C17.11 9.62 17.55 10.92 19.89 13 C24.44 15.7 24.44 15.7 29.61 16.02 C32.12 15.41 32.12 15.41 33.94 13.14 C34.6 12.52 35.26 11.9 35.94 11.27 C40.23 11.54 42.49 13.18 45.62 16.02 C46.39 16.69 47.16 17.37 47.95 18.06 C50.04 20.38 50.97 22.32 51.94 25.27 C48.47 29.23 48.47 29.23 44.94 33.27 C45.6 34.94 46.26 36.6 46.94 38.27 C47.43 40.09 47.43 40.09 47.94 41.95 C49.54 45.41 49.54 45.41 52.29 46.09 C54.07 46.41 55.86 46.68 57.66 46.88 C59.94 47.27 59.94 47.27 61.94 49.27 C62.14 52.14 62.22 54.89 62.19 57.77 C62.2 58.94 62.2 58.94 62.21 60.14 C62.19 66.01 62.19 66.01 59.94 68.27 C57.34 68.68 57.34 68.68 54.31 68.89 C52.81 69 52.81 69 51.27 69.12 C50.5 69.17 49.73 69.22 48.94 69.27 C47.49 73.24 46.3 77.04 45.94 81.27 C47.22 83.65 48.53 84.97 50.62 86.67 C51.94 88.27 51.94 88.27 51.96 90.59 C50.59 94.16 48.36 96.5 45.69 99.14 C44.97 99.91 44.97 99.91 44.24 100.69 C41.91 103.02 40.63 104.26 37.27 104.28 C34.77 103.19 33.65 102.23 31.94 100.14 C30.47 98.52 30.47 98.52 28.94 97.27 C24.92 97.17 22.28 99.19 18.94 101.27 C18.28 101.27 17.62 101.27 16.94 101.27 C16.86 102.44 16.86 102.44 16.79 103.64 C16.71 104.65 16.64 105.66 16.56 106.7 C16.49 107.71 16.42 108.72 16.35 109.76 C16.15 111 16.15 111 15.94 112.27 C12.67 113.9 9.09 113.53 5.5 113.58 C4.72 113.61 3.95 113.64 3.15 113.67 C-2.54 113.73 -2.54 113.73 -5.05 111.48 C-6.43 108.46 -6.75 105.55 -7.06 102.27 C-8.64 101.56 -10.22 100.88 -11.81 100.2 C-12.69 99.82 -13.58 99.44 -14.48 99.04 C-17.27 98.2 -18.42 98.13 -21.06 99.27 C-21.87 100.13 -22.67 101 -23.5 101.89 C-26.06 104.27 -26.06 104.27 -28.39 104.2 C-31.8 103.01 -33.7 101.24 -36.31 98.77 C-37.18 97.95 -38.06 97.14 -38.95 96.3 C-42.05 93.31 -42.05 93.31 -42.5 91.08 C-41.99 87.81 -41.38 87.4 -39 85.27 C-37.35 83.8 -37.35 83.8 -36.06 82.27 C-35.96 78.14 -38.22 74.88 -40.06 71.27 C-40.06 70.61 -40.06 69.95 -40.06 69.27 C-41.11 69.19 -41.11 69.19 -42.18 69.12 C-43.09 69.04 -44 68.97 -44.94 68.89 C-45.84 68.82 -46.75 68.75 -47.68 68.68 C-50.06 68.27 -50.06 68.27 -52.06 66.27 C-52.26 63.39 -52.34 60.64 -52.31 57.77 C-52.32 56.98 -52.33 56.2 -52.34 55.39 C-52.32 49.52 -52.32 49.52 -50.06 47.27 C-47.68 46.85 -47.68 46.85 -44.94 46.64 C-44.03 46.57 -43.12 46.49 -42.18 46.41 C-41.48 46.37 -40.78 46.32 -40.06 46.27 C-39.29 44.04 -38.54 41.82 -37.82 39.58 C-37.26 37.88 -36.67 36.2 -36.06 34.52 C-35.8 31.95 -35.8 31.95 -38.5 29.77 C-39.35 28.94 -40.19 28.12 -41.06 27.27 C-41.55 24.97 -41.55 24.97 -41.06 22.27 C-39.38 20.09 -37.83 18.34 -35.88 16.45 C-35.39 15.95 -34.91 15.45 -34.41 14.93 C-32.13 12.68 -30.55 11.35 -27.36 10.78 C-25.06 11.27 -25.06 11.27 -22.56 13.83 C-20.36 16.53 -20.36 16.53 -17.69 16.33 C-12.5 14.41 -12.5 14.41 -8.06 11.27 C-7.19 8.92 -6.77 6.77 -6.45 4.29 C-5.69 0.32 -3.59 0.01 0 0 Z"/>
<path transform="translate(497,244)" fill="#DC5135" d="M0 0 C0.33 0 0.66 0 1 0 C0.97 0.61 0.95 1.21 0.92 1.84 C0.44 13.14 -0 24.45 -0.3 35.77 C-0.43 40.58 -0.57 45.4 -0.71 50.22 C-0.78 52.7 -0.84 55.17 -0.9 57.65 C-0.98 61.28 -1.09 64.92 -1.21 68.55 C-1.23 69.66 -1.25 70.77 -1.27 71.92 C-1.32 73.45 -1.32 73.45 -1.38 75.01 C-1.4 75.9 -1.43 76.8 -1.45 77.72 C-2.19 80.78 -3.35 81.38 -6 83 C-8.19 83.37 -8.19 83.37 -10.62 83.37 C-11.54 83.37 -12.47 83.38 -13.42 83.38 C-14.42 83.37 -15.43 83.36 -16.47 83.35 C-17.53 83.36 -18.6 83.36 -19.69 83.36 C-22.01 83.36 -24.33 83.36 -26.65 83.35 C-30.33 83.34 -34.01 83.34 -37.69 83.35 C-48.15 83.39 -58.62 83.38 -69.09 83.36 C-75.49 83.35 -81.89 83.36 -88.3 83.39 C-90.73 83.4 -93.15 83.39 -95.58 83.38 C-109.7 83.3 -121.69 84.24 -135 89 C-135.66 89 -136.32 89 -137 89 C-137.44 86.86 -137.44 86.86 -137 84 C-134.95 81.71 -132.5 80.02 -130 78.25 C-128.92 77.47 -128.92 77.47 -127.82 76.67 C-108.26 62.79 -89.77 57.4 -65.81 56.56 C-48.99 55.91 -33.76 51.64 -21.38 39.64 C-10.99 28.11 -3.88 15.07 0 0 Z"/>
<path transform="translate(507.79296875,437.02734375)" fill="#25799B" d="M0 0 C6.01 3.28 10.89 7.4 13.21 13.97 C14.32 23.36 13.85 30.52 8.46 38.6 C3.71 43.61 -2.06 46.02 -8.92 46.35 C-15.44 46.24 -21.09 43.69 -25.69 39.07 C-31.06 32.27 -32.81 25.57 -31.79 16.97 C-29.95 9.82 -25.87 5.06 -19.79 0.97 C-13.53 -2.06 -6.55 -2.41 0 0 Z"/>
<path transform="translate(558.25,275.875)" fill="#2E434B" d="M0 0 C5.54 3.11 8.59 7.18 10.75 13.12 C11.84 19.26 11.29 24.89 8.16 30.34 C4.91 34.46 0.72 37.47 -4.25 39.12 C-11.25 39.85 -16.84 39.82 -22.63 35.55 C-27.18 31.54 -29.78 27.35 -30.66 21.33 C-30.9 13.63 -29.56 8.81 -24.25 3.12 C-17.17 -2.98 -8.45 -3.63 0 0 Z"/>
</svg>